<svg xmlns="http://www.w3.org/2000/svg" xml:space="preserve" viewBox="0 0 501.551 501.551"><path fill="#f2f2f2" d="M149.943 0 43.363 107.624v373.029c0 11.494 9.404 20.898 20.898 20.898H437.29c11.494 0 20.898-9.404 20.898-20.898V20.898C458.188 9.404 448.784 0 437.29 0H149.943z"/><path fill="#cdd6e0" d="M149.943 86.727V0L43.363 107.624h86.727c11.494 0 19.853-9.404 19.853-20.897z"/><path fill="#84dbff" d="M246.073 74.188h159.869v190.171H246.073z"/><g fill="#cdd6e0"><path d="M92.473 156.735h123.298v26.122H92.473zM92.473 238.237h123.298v26.122H92.473zM92.473 318.694h316.604v26.122H92.473zM92.473 400.196h316.604v26.122H92.473z"/></g></svg>
